<?xml version="1.0" encoding="utf-8"?>
<!-- Generator: Adobe Illustrator 25.0.0, SVG Export Plug-In . SVG Version: 6.00 Build 0)  -->
<svg version="1.1" id="Layer_1" xmlns="http://www.w3.org/2000/svg" xmlns:xlink="http://www.w3.org/1999/xlink" x="0px" y="0px"
	 viewBox="0 0 500 500" style="enable-background:new 0 0 500 500;" xml:space="preserve">
<style type="text/css">
	.st0{fill:#00005B;}
	.st1{fill:#9999FF;}
</style>
<g id="After_Effects" transform="translate(639 308)">
	<path id="_3" class="st0" d="M-534.7-270.1h292.3c36.7,0,66.4,29.7,66.4,66.4V88.7c0,36.7-29.7,66.4-66.4,66.4h-292.3
		c-36.7,0-66.4-29.7-66.4-66.4v-292.3C-601.1-240.4-571.4-270.1-534.7-270.1z"/>
	<path id="_4" class="st1" d="M-426.5-10.5h-64.9l-13.2,42.8c-0.4,1.5-1.8,2.6-3.4,2.5h-32.9c-1.9,0-2.5-1-2-3.1l56.2-159.6
		c0.6-1.7,1.1-3.6,1.7-5.8c0.7-3.7,1.1-7.6,1.1-11.4c-0.1-1,0.5-1.8,1.5-2c0.2,0,0.3,0,0.5,0h44.7c1.3,0,2.1,0.5,2.2,1.4L-371.1,32
		c0.6,1.9,0,2.8-1.7,2.8h-36.5c-1.3,0.1-2.5-0.7-2.8-2L-426.5-10.5z M-481.3-40.4h44.4c-1.1-3.7-2.4-11.4-3.9-16.1
		c-1.5-4.7-3.1-9.7-4.8-15c-1.7-5.3-3.4-10.7-5.1-16c-1.7-5.3-3.2-10.5-4.7-15.5c-1.4-5-2.7-9.5-3.8-13.6h-0.3
		c-1.6,7.6-3.6,15.1-5.9,22.5c-2.6,8.4-5.3,17-8,25.8C-476-59.5-478.7-47.9-481.3-40.4z"/>
	<path id="_5" class="st1" d="M-268.1-25.8h-55.3c0.8,5.7,2.7,11.2,5.7,16.1c3.1,4.7,7.6,8.3,12.8,10.5c7.2,3.2,14.9,4.9,22.8,4.8
		c5.3,0.1,10.5-0.3,15.7-1.2c5.6-1,11.2-2.7,16.4-4.9c0.9-0.7,1.4-0.3,1.4,1.4v26.7c0,0.7-0.1,1.5-0.4,2.1c-0.3,0.5-0.8,0.9-1.3,1.3
		c-5.8,2.8-12,4.8-18.3,6c-7.5,1.1-15.2,1.4-22.8,0.9c-11.5,0.4-22.9-1.8-33.4-6.2c-8.5-3.7-16-9.4-21.9-16.6
		c-5.5-6.7-9.6-14.5-12.1-22.9c-2.4-8.3-3.7-16.8-3.7-25.4c0-9.4,1.4-18.7,4.4-27.7c2.8-8.7,7.2-16.8,13.1-23.9
		c5.8-7,13-12.6,21.1-16.6c9.2-4.2,19.2-6.3,29.2-6c9.8-0.1,19.5,1.8,28.6,5.6c7.2,3.3,13.5,8.2,18.4,14.5
		c4.6,5.9,8.1,12.6,10.4,19.8c2.2,6.9,3.4,14.1,3.4,21.3c0,4.1-0.1,7.9-0.4,11.2c-0.2,2-0.6,4-1.1,6c-0.1,1.3-1.2,2.3-2.5,2.2
		c-1.1,0-3,0.1-5.8,0.4s-7.5,0.2-11.6,0.3C-259.4-25.9-263.6-25.8-268.1-25.8z M-323.6-48.2h36.8c4.5,0,7.8,0,10-0.1
		c1.4,0,2.7-0.1,4.1-0.4v-1.7c0.2-3.4,0-6.7-0.6-10c-3.1-9.9-12.4-16.4-22.8-16c-9.7-0.6-18.8,4.6-23.2,13.2
		C-321.4-58.5-322.9-53.4-323.6-48.2z"/>
</g>
</svg>
