<?xml version="1.0" encoding="utf-8"?>
<!-- Generator: Adobe Illustrator 25.0.0, SVG Export Plug-In . SVG Version: 6.00 Build 0)  -->
<svg version="1.1" id="Layer_1" xmlns="http://www.w3.org/2000/svg" xmlns:xlink="http://www.w3.org/1999/xlink" x="0px" y="0px"
	 viewBox="0 0 500 500" style="enable-background:new 0 0 500 500;" xml:space="preserve">
<style type="text/css">
	.st0{fill:#001E36;}
	.st1{fill:#31A8FF;}
</style>
<g id="Lightroom_Classic" transform="translate(3343 308)">
	<path id="_19" class="st0" d="M-3239.2-270.6h292.3c36.7,0,66.4,29.7,66.4,66.4V88.2c0,36.7-29.7,66.4-66.4,66.4h-292.3
		c-36.7,0-66.4-29.7-66.4-66.4v-292.3C-3305.6-240.9-3275.9-270.6-3239.2-270.6z"/>
	<path id="_36" class="st1" d="M-3149.1,30L-3149.1,30c-0.2,1.1-0.8,2.1-1.7,2.8c-0.9,0.7-2,1-3.1,1h-96.2c-1.3,0.1-2.5-0.5-3.4-1.4
		c-0.8-1-1.2-2.2-1.2-3.5v-168.2c-0.2-2.2,1.5-4.2,3.7-4.3c0.2,0,0.4,0,0.6,0h28c1.1,0,2.1,0.4,2.9,1.2c0.6,0.8,1,1.8,0.9,2.8V4.8
		h69.6c1.2-0.1,2.5,0.4,3.3,1.3c0.8,1,1.1,2.3,0.7,3.5L-3149.1,30z"/>
	<path id="_37" class="st1" d="M-3135.9-97c0.8-0.8,1.9-1.3,3-1.2h24.6c1.1,0,2.2,0.3,3.1,1c0.9,0.7,1.5,1.5,1.9,2.6
		c1.2,3.4,2,6.9,2.3,10.5c9.8-10.7,23.8-16.7,38.3-16.3c2.1-0.1,3.9,1.4,4.1,3.5c0,0.2,0,0.3,0,0.5v26.5c0.2,2.1-1.4,3.9-3.5,4.1
		c-0.4,0-0.7,0-1.1-0.1c-14.7-0.8-26,3-34.1,11.1c-1.2,1.3-1.8,3-1.7,4.7v79.9c0,1.2-0.4,2.3-1.3,3c-0.9,0.7-1.9,1-3,1h-27.5
		c-1.2,0.1-2.3-0.3-3.2-1.1c-0.9-0.8-1.4-2-1.3-3.2v-88.6c0-14.1-0.4-25.7-1.3-34.9C-3136.9-95-3136.6-96.1-3135.9-97z"/>
	<path id="_38" class="st1" d="M-2927.7,30.7l-0.1,0.1c-8.9,3.7-21.3,5.4-36.7,5.4c-25.3,0-46.4-7.6-63.1-22.9
		c-16.9-15.4-25.1-38.6-25.1-69c0-27,8.2-49,24.8-65.5c16.7-16.7,38.7-25,65.8-25c15.9,0,28.1,1.8,36.2,5.7c1,0.4,1.8,1.1,2.3,2
		c0.5,0.9,0.7,1.9,0.7,3v22.8c0,0.6-0.1,1.2-0.2,1.9c-0.2,0.7-0.6,1.4-1.2,1.9c-0.7,0.5-1.7,0.7-2.5,0.5c-0.6-0.2-1.1-0.4-1.6-0.8
		c-10.1-5-21.3-7.4-32.6-7c-17,0-30.1,5.2-39.8,15.5l0,0c-9.6,10.1-14.6,24.7-14.6,44.1c-0.2,10.4,1.5,20.8,5.1,30.6
		c2.8,7.5,7.5,14.2,13.7,19.2c5.3,4.2,11.3,7.4,17.7,9.6c6.3,2,12.9,3.1,19.5,3c10.2,0.1,20.4-1.5,30.1-4.8c1.1-0.5,2.4-0.5,3.5,0.2
		c1,0.8,1.5,2,1.4,3.2v21c0.1,2.2-1,4.3-3,5.3L-2927.7,30.7z"/>
</g>
</svg>
